<?xml version="1.0" encoding="UTF-8" standalone="no"?>
<svg width="18px" height="18px" viewBox="0 0 18 18" version="1.1" xmlns="http://www.w3.org/2000/svg" xmlns:xlink="http://www.w3.org/1999/xlink" xmlns:sketch="http://www.bohemiancoding.com/sketch/ns">
    <!-- Generator: Sketch 3.4.2 (15857) - http://www.bohemiancoding.com/sketch -->
    <title>Bell</title>
    <desc>Created with Sketch.</desc>
    <defs>
        <path id="path-1" d="M0,0 L18,0 L18,18 L0,18 L0,0 Z"></path>
    </defs>
    <g id="Page-1" stroke="none" stroke-width="1" fill="none" fill-rule="evenodd" sketch:type="MSPage">
        <g id="iPhone-6-Copy-2" sketch:type="MSArtboardGroup" transform="translate(-281.000000, -459.000000)">
            <g id="Meeting-Item-5" sketch:type="MSLayerGroup" transform="translate(0.000000, 437.000000)">
                <g id="Meeting-Alert" transform="translate(281.000000, 22.000000)">
                    <g id="Bell">
                        <mask id="mask-2" sketch:name="Clip 2" fill="white">
                            <use xlink:href="#path-1"></use>
                        </mask>
                        <g id="Clip-2"></g>
                        <path d="M16.164606,8.1624 L13.774806,12.2058108 L13.534806,16.112988 L2.150409,9.693606 L5.494794,7.537206 L7.8852,3.493212 C9.205206,1.260606 12.129,0.495006 14.414394,1.784988 C16.700994,3.073794 17.484594,5.929212 16.164606,8.1624 L16.164606,8.1624 L16.164606,8.1624 Z M6.348594,15.4308108 C5.4912048,14.9471922 5.1971922,13.8767946 5.6922,13.039197 L8.797194,14.7900144 C8.302206,15.6276126 7.206006,15.913806 6.348594,15.4308108 L6.348594,15.4308108 L6.348594,15.4308108 Z M15.0126,0.7734 C12.1548,-0.8376 8.500194,0.118212 6.850194,2.909988 L4.460394,6.953394 L0.000604248,9.8298 L4.6578,12.456006 C3.8328,13.8515994 4.3218018,15.6359988 5.7509946,16.4411868 C7.180206,17.2475832 9.007194,16.769385 9.832194,15.3737916 L14.488806,18 L14.809806,12.7890012 L17.199594,8.745594 C18.849594,5.954406 17.8704,2.385606 15.0126,0.7734 L15.0126,0.7734 L15.0126,0.7734 Z" id="Fill-1" fill="#CF5200" sketch:type="MSShapeGroup" mask="url(#mask-2)"></path>
                        <path d="M16.1646,8.1624 L13.7748,12.2058 L13.5348,16.113 L2.1504,9.6936 L5.4948,7.5372 L7.8852,3.4932 C9.2052,1.2606 12.129,0.495 14.4144,1.785 C16.701,3.0738 17.4846,5.9292 16.1646,8.1624 L16.1646,8.1624 L16.1646,8.1624 Z M6.3486,15.4308 C5.4912,14.9472 5.1972,13.8768 5.6922,13.0392 L8.7972,14.79 C8.3022,15.6276 7.206,15.9138 6.3486,15.4308 L6.3486,15.4308 L6.3486,15.4308 Z M15.0126,0.7734 C12.1548,-0.8376 8.5002,0.1182 6.8502,2.91 L4.4604,6.9534 L0.0006,9.8298 L4.6578,12.456 C3.8328,13.8516 4.3218,15.636 5.751,16.4412 C7.1802,17.2476 9.0072,16.7694 9.8322,15.3738 L14.4888,18 L14.8098,12.789 L17.1996,8.7456 C18.8496,5.9544 17.8704,2.3856 15.0126,0.7734 L15.0126,0.7734 L15.0126,0.7734 Z" id="Stroke-3" stroke-opacity="0" stroke="#000000" sketch:type="MSShapeGroup" mask="url(#mask-2)"></path>
                    </g>
                </g>
            </g>
        </g>
    </g>
</svg>