<?xml version="1.0" encoding="UTF-8" standalone="no"?>
<svg width="24px" height="25px" viewBox="0 0 24 25" version="1.1" xmlns="http://www.w3.org/2000/svg" xmlns:xlink="http://www.w3.org/1999/xlink" xmlns:sketch="http://www.bohemiancoding.com/sketch/ns">
    <!-- Generator: Sketch 3.4.2 (15857) - http://www.bohemiancoding.com/sketch -->
    <title>Calendar</title>
    <desc>Created with Sketch.</desc>
    <defs></defs>
    <g id="Page-1" stroke="none" stroke-width="1" fill="none" fill-rule="evenodd" sketch:type="MSPage">
        <g id="iPhone-6-Copy-2" sketch:type="MSArtboardGroup" transform="translate(-18.000000, -196.000000)">
            <g id="Calendar-Footer" sketch:type="MSLayerGroup" transform="translate(0.000000, 182.000000)">
                <g id="Calendar" transform="translate(18.000000, 14.000000)" sketch:type="MSShapeGroup">
                    <path d="M10.9375,18.75 L12.5,18.75 L12.5,20.3125 L10.9375,20.3125 L10.9375,18.75 L10.9375,18.75 Z M10.9375,21.875 L12.5,21.875 C13.3625,21.875 14.0625,21.1750031 14.0625,20.3125 L14.0625,18.75 C14.0625,17.8874969 13.3625,17.1875 12.5,17.1875 L10.9375,17.1875 C10.075,17.1875 9.375,17.8874969 9.375,18.75 L9.375,20.3125 C9.375,21.1750031 10.075,21.875 10.9375,21.875 L10.9375,21.875 L10.9375,21.875 Z M4.6875,18.75 L6.25,18.75 L6.25,20.3125 L4.6875,20.3125 L4.6875,18.75 L4.6875,18.75 Z M4.6875,21.875 L6.25,21.875 C7.11250312,21.875 7.8125,21.1750031 7.8125,20.3125 L7.8125,18.75 C7.8125,17.8874969 7.11250312,17.1875 6.25,17.1875 L4.6875,17.1875 C3.82499687,17.1875 3.125,17.8874969 3.125,18.75 L3.125,20.3125 C3.125,21.1750031 3.82499687,21.875 4.6875,21.875 L4.6875,21.875 L4.6875,21.875 Z M10.9375,12.5 L12.5,12.5 L12.5,14.0625 L10.9375,14.0625 L10.9375,12.5 L10.9375,12.5 Z M10.9375,15.625 L12.5,15.625 C13.3625,15.625 14.0625,14.925 14.0625,14.0625 L14.0625,12.5 C14.0625,11.6375 13.3625,10.9375 12.5,10.9375 L10.9375,10.9375 C10.075,10.9375 9.375,11.6375 9.375,12.5 L9.375,14.0625 C9.375,14.925 10.075,15.625 10.9375,15.625 L10.9375,15.625 L10.9375,15.625 Z M4.6875,12.5 L6.25,12.5 L6.25,14.0625 L4.6875,14.0625 L4.6875,12.5 L4.6875,12.5 Z M4.6875,15.625 L6.25,15.625 C7.11250312,15.625 7.8125,14.925 7.8125,14.0625 L7.8125,12.5 C7.8125,11.6375 7.11250312,10.9375 6.25,10.9375 L4.6875,10.9375 C3.82499687,10.9375 3.125,11.6375 3.125,12.5 L3.125,14.0625 C3.125,14.925 3.82499687,15.625 4.6875,15.625 L4.6875,15.625 L4.6875,15.625 Z M21.875,6.25 L1.5625,6.25 L1.5625,4.6875 C1.5625,3.825 2.26249688,3.125 3.125,3.125 L6.25,3.125 L6.25,3.90625 C6.25,4.33828906 6.59921172,4.6875 7.03125,4.6875 C7.46328828,4.6875 7.8125,4.33828906 7.8125,3.90625 L7.8125,3.125 L15.625,3.125 L15.625,3.90625 C15.625,4.33828906 15.9742109,4.6875 16.40625,4.6875 C16.8382891,4.6875 17.1875,4.33828906 17.1875,3.90625 L17.1875,3.125 L20.3125,3.125 C21.175,3.125 21.875,3.825 21.875,4.6875 L21.875,6.25 L21.875,6.25 L21.875,6.25 Z M21.875,21.875 C21.875,22.7375031 21.175,23.4375 20.3125,23.4375 L3.125,23.4375 C2.26249688,23.4375 1.5625,22.7375031 1.5625,21.875 L1.5625,7.8125 L21.875,7.8125 L21.875,21.875 L21.875,21.875 L21.875,21.875 Z M20.3125,1.5625 L17.1875,1.5625 L17.1875,0.78125 C17.1875,0.35 16.8382891,0 16.40625,0 C15.9742109,0 15.625,0.35 15.625,0.78125 L15.625,1.5625 L7.8125,1.5625 L7.8125,0.78125 C7.8125,0.35 7.46328828,0 7.03125,0 C6.59921172,0 6.25,0.35 6.25,0.78125 L6.25,1.5625 L3.125,1.5625 C1.39920703,1.5625 0,2.96171094 0,4.6875 L0,21.875 C0,23.600793 1.39920703,25 3.125,25 L20.3125,25 C22.0382891,25 23.4375,23.600793 23.4375,21.875 L23.4375,4.6875 C23.4375,2.96171094 22.0382891,1.5625 20.3125,1.5625 L20.3125,1.5625 L20.3125,1.5625 Z M17.1875,12.5 L18.75,12.5 L18.75,14.0625 L17.1875,14.0625 L17.1875,12.5 L17.1875,12.5 Z M17.1875,15.625 L18.75,15.625 C19.6125,15.625 20.3125,14.925 20.3125,14.0625 L20.3125,12.5 C20.3125,11.6375 19.6125,10.9375 18.75,10.9375 L17.1875,10.9375 C16.325,10.9375 15.625,11.6375 15.625,12.5 L15.625,14.0625 C15.625,14.925 16.325,15.625 17.1875,15.625 L17.1875,15.625 L17.1875,15.625 Z M17.1875,18.75 L18.75,18.75 L18.75,20.3125 L17.1875,20.3125 L17.1875,18.75 L17.1875,18.75 Z M17.1875,21.875 L18.75,21.875 C19.6125,21.875 20.3125,21.1750031 20.3125,20.3125 L20.3125,18.75 C20.3125,17.8874969 19.6125,17.1875 18.75,17.1875 L17.1875,17.1875 C16.325,17.1875 15.625,17.8874969 15.625,18.75 L15.625,20.3125 C15.625,21.1750031 16.325,21.875 17.1875,21.875 L17.1875,21.875 L17.1875,21.875 Z" id="Fill-1" fill="#FFFFFF"></path>
                    <path d="M10.9375,18.75 L12.5,18.75 L12.5,20.3125 L10.9375,20.3125 L10.9375,18.75 L10.9375,18.75 Z M10.9375,21.875 L12.5,21.875 C13.3625,21.875 14.0625,21.175 14.0625,20.3125 L14.0625,18.75 C14.0625,17.8875 13.3625,17.1875 12.5,17.1875 L10.9375,17.1875 C10.075,17.1875 9.375,17.8875 9.375,18.75 L9.375,20.3125 C9.375,21.175 10.075,21.875 10.9375,21.875 L10.9375,21.875 L10.9375,21.875 Z M4.6875,18.75 L6.25,18.75 L6.25,20.3125 L4.6875,20.3125 L4.6875,18.75 L4.6875,18.75 Z M4.6875,21.875 L6.25,21.875 C7.1125,21.875 7.8125,21.175 7.8125,20.3125 L7.8125,18.75 C7.8125,17.8875 7.1125,17.1875 6.25,17.1875 L4.6875,17.1875 C3.825,17.1875 3.125,17.8875 3.125,18.75 L3.125,20.3125 C3.125,21.175 3.825,21.875 4.6875,21.875 L4.6875,21.875 L4.6875,21.875 Z M10.9375,12.5 L12.5,12.5 L12.5,14.0625 L10.9375,14.0625 L10.9375,12.5 L10.9375,12.5 Z M10.9375,15.625 L12.5,15.625 C13.3625,15.625 14.0625,14.925 14.0625,14.0625 L14.0625,12.5 C14.0625,11.6375 13.3625,10.9375 12.5,10.9375 L10.9375,10.9375 C10.075,10.9375 9.375,11.6375 9.375,12.5 L9.375,14.0625 C9.375,14.925 10.075,15.625 10.9375,15.625 L10.9375,15.625 L10.9375,15.625 Z M4.6875,12.5 L6.25,12.5 L6.25,14.0625 L4.6875,14.0625 L4.6875,12.5 L4.6875,12.5 Z M4.6875,15.625 L6.25,15.625 C7.1125,15.625 7.8125,14.925 7.8125,14.0625 L7.8125,12.5 C7.8125,11.6375 7.1125,10.9375 6.25,10.9375 L4.6875,10.9375 C3.825,10.9375 3.125,11.6375 3.125,12.5 L3.125,14.0625 C3.125,14.925 3.825,15.625 4.6875,15.625 L4.6875,15.625 L4.6875,15.625 Z M21.875,6.25 L1.5625,6.25 L1.5625,4.6875 C1.5625,3.825 2.2625,3.125 3.125,3.125 L6.25,3.125 L6.25,3.90625 C6.25,4.33828125 6.59921875,4.6875 7.03125,4.6875 C7.46328125,4.6875 7.8125,4.33828125 7.8125,3.90625 L7.8125,3.125 L15.625,3.125 L15.625,3.90625 C15.625,4.33828125 15.9742188,4.6875 16.40625,4.6875 C16.8382812,4.6875 17.1875,4.33828125 17.1875,3.90625 L17.1875,3.125 L20.3125,3.125 C21.175,3.125 21.875,3.825 21.875,4.6875 L21.875,6.25 L21.875,6.25 L21.875,6.25 Z M21.875,21.875 C21.875,22.7375 21.175,23.4375 20.3125,23.4375 L3.125,23.4375 C2.2625,23.4375 1.5625,22.7375 1.5625,21.875 L1.5625,7.8125 L21.875,7.8125 L21.875,21.875 L21.875,21.875 L21.875,21.875 Z M20.3125,1.5625 L17.1875,1.5625 L17.1875,0.78125 C17.1875,0.35 16.8382812,0 16.40625,0 C15.9742188,0 15.625,0.35 15.625,0.78125 L15.625,1.5625 L7.8125,1.5625 L7.8125,0.78125 C7.8125,0.35 7.46328125,0 7.03125,0 C6.59921875,0 6.25,0.35 6.25,0.78125 L6.25,1.5625 L3.125,1.5625 C1.39921875,1.5625 0,2.96171875 0,4.6875 L0,21.875 C0,23.6007813 1.39921875,25 3.125,25 L20.3125,25 C22.0382813,25 23.4375,23.6007813 23.4375,21.875 L23.4375,4.6875 C23.4375,2.96171875 22.0382813,1.5625 20.3125,1.5625 L20.3125,1.5625 L20.3125,1.5625 Z M17.1875,12.5 L18.75,12.5 L18.75,14.0625 L17.1875,14.0625 L17.1875,12.5 L17.1875,12.5 Z M17.1875,15.625 L18.75,15.625 C19.6125,15.625 20.3125,14.925 20.3125,14.0625 L20.3125,12.5 C20.3125,11.6375 19.6125,10.9375 18.75,10.9375 L17.1875,10.9375 C16.325,10.9375 15.625,11.6375 15.625,12.5 L15.625,14.0625 C15.625,14.925 16.325,15.625 17.1875,15.625 L17.1875,15.625 L17.1875,15.625 Z M17.1875,18.75 L18.75,18.75 L18.75,20.3125 L17.1875,20.3125 L17.1875,18.75 L17.1875,18.75 Z M17.1875,21.875 L18.75,21.875 C19.6125,21.875 20.3125,21.175 20.3125,20.3125 L20.3125,18.75 C20.3125,17.8875 19.6125,17.1875 18.75,17.1875 L17.1875,17.1875 C16.325,17.1875 15.625,17.8875 15.625,18.75 L15.625,20.3125 C15.625,21.175 16.325,21.875 17.1875,21.875 L17.1875,21.875 L17.1875,21.875 Z" id="Stroke-3" stroke-opacity="0" stroke="#000000"></path>
                </g>
            </g>
        </g>
    </g>
</svg>