<?xml version="1.0" encoding="UTF-8" standalone="no"?>
<svg width="14px" height="14px" viewBox="0 0 14 14" version="1.1" xmlns="http://www.w3.org/2000/svg" xmlns:xlink="http://www.w3.org/1999/xlink" xmlns:sketch="http://www.bohemiancoding.com/sketch/ns">
    <!-- Generator: Sketch 3.4.2 (15857) - http://www.bohemiancoding.com/sketch -->
    <title>Clock</title>
    <desc>Created with Sketch.</desc>
    <defs></defs>
    <g id="Page-1" stroke="none" stroke-width="1" fill="none" fill-rule="evenodd" sketch:type="MSPage">
        <g id="iPhone-6-Copy-2" sketch:type="MSArtboardGroup" transform="translate(-29.000000, -501.000000)">
            <g id="Meeting-Item-5" sketch:type="MSLayerGroup" transform="translate(0.000000, 437.000000)">
                <g id="Meeting-Time" transform="translate(29.000000, 62.000000)" sketch:type="MSShapeGroup">
                    <g id="Clock" transform="translate(0.000000, 2.000000)">
                        <path d="M11.375,7.4375 L12.25,7.4375 L12.25,6.5625 L11.375,6.5625 L11.375,7.4375 L11.375,7.4375 Z M7,13.125 C3.61725219,13.125 0.875,10.3827478 0.875,7 C0.875,3.61769187 3.61725219,0.875 7,0.875 C10.3827456,0.875 13.125,3.61769187 13.125,7 C13.125,10.3827478 10.3827456,13.125 7,13.125 L7,13.125 L7,13.125 Z M7,0 C3.13380987,0 0,3.13425 0,7 C0,10.8661901 3.13380987,14 7,14 C10.8661919,14 14,10.8661901 14,7 C14,3.13425 10.8661919,0 7,0 L7,0 L7,0 Z M9.65824563,3.61944187 L10.2637456,4.22625 L10.8692456,3.61944187 L10.2637456,3.01305812 L9.65824563,3.61944187 L9.65824563,3.61944187 L9.65824563,3.61944187 Z M9.53005813,9.96538156 L10.1486831,10.5839939 L10.7673081,9.96538156 L10.1486831,9.34675437 L9.53005813,9.96538156 L9.53005813,9.96538156 L9.53005813,9.96538156 Z M7,1.75 C6.7585,1.75 6.5625,1.94555812 6.5625,2.1875 L6.5625,6.57256687 L3.0625,6.57256687 C2.82055856,6.57256687 2.625,6.76899125 2.625,7.01049562 C2.625,7.25199562 2.82055856,7.44756687 3.0625,7.44756687 L7,7.44756687 C7.24194188,7.44756687 7.4375,7.25199562 7.4375,7.01049562 L7.4375,2.1875 C7.4375,1.94555812 7.24194188,1.75 7,1.75 L7,1.75 L7,1.75 Z M4.24024387,3.6413125 L3.62163156,3.0226875 L3.00300613,3.6413125 L3.62163156,4.2599375 L4.24024387,3.6413125 L4.24024387,3.6413125 L4.24024387,3.6413125 Z M2.94568838,9.98900044 L3.55118925,10.5958099 L4.15669056,9.98900044 L3.55118925,9.38219188 L2.94568838,9.98900044 L2.94568838,9.98900044 L2.94568838,9.98900044 Z M6.5625,12.25 L7.4375,12.25 L7.4375,11.375 L6.5625,11.375 L6.5625,12.25 L6.5625,12.25 Z" id="Fill-1" fill="#A1A6A9"></path>
                        <path d="M11.375,7.4375 L12.25,7.4375 L12.25,6.5625 L11.375,6.5625 L11.375,7.4375 L11.375,7.4375 Z M7,13.125 C3.61725,13.125 0.875,10.38275 0.875,7 C0.875,3.6176875 3.61725,0.875 7,0.875 C10.38275,0.875 13.125,3.6176875 13.125,7 C13.125,10.38275 10.38275,13.125 7,13.125 L7,13.125 L7,13.125 Z M7,0 C3.1338125,0 0,3.13425 0,7 C0,10.8661875 3.1338125,14 7,14 C10.8661875,14 14,10.8661875 14,7 C14,3.13425 10.8661875,0 7,0 L7,0 L7,0 Z M9.65825,3.6194375 L10.26375,4.22625 L10.86925,3.6194375 L10.26375,3.0130625 L9.65825,3.6194375 L9.65825,3.6194375 L9.65825,3.6194375 Z M9.5300625,9.965375 L10.1486875,10.584 L10.7673125,9.965375 L10.1486875,9.34675 L9.5300625,9.965375 L9.5300625,9.965375 L9.5300625,9.965375 Z M7,1.75 C6.7585,1.75 6.5625,1.9455625 6.5625,2.1875 L6.5625,6.5725625 L3.0625,6.5725625 C2.8205625,6.5725625 2.625,6.769 2.625,7.0105 C2.625,7.252 2.8205625,7.4475625 3.0625,7.4475625 L7,7.4475625 C7.2419375,7.4475625 7.4375,7.252 7.4375,7.0105 L7.4375,2.1875 C7.4375,1.9455625 7.2419375,1.75 7,1.75 L7,1.75 L7,1.75 Z M4.24025,3.6413125 L3.621625,3.0226875 L3.003,3.6413125 L3.621625,4.2599375 L4.24025,3.6413125 L4.24025,3.6413125 L4.24025,3.6413125 Z M2.9456875,9.989 L3.5511875,10.5958125 L4.1566875,9.989 L3.5511875,9.3821875 L2.9456875,9.989 L2.9456875,9.989 L2.9456875,9.989 Z M6.5625,12.25 L7.4375,12.25 L7.4375,11.375 L6.5625,11.375 L6.5625,12.25 L6.5625,12.25 Z" id="Stroke-3" stroke-opacity="0" stroke="#000000"></path>
                    </g>
                </g>
            </g>
        </g>
    </g>
</svg>