<?xml version="1.0" encoding="UTF-8" standalone="no"?>
<svg width="10px" height="14px" viewBox="0 0 10 14" version="1.1" xmlns="http://www.w3.org/2000/svg" xmlns:xlink="http://www.w3.org/1999/xlink" xmlns:sketch="http://www.bohemiancoding.com/sketch/ns">
    <!-- Generator: Sketch 3.4.2 (15857) - http://www.bohemiancoding.com/sketch -->
    <title>Location Pin</title>
    <desc>Created with Sketch.</desc>
    <defs>
        <path id="path-1" d="M0,0 L10,0 L10,14 L0,14 L0,0 Z"></path>
    </defs>
    <g id="Page-1" stroke="none" stroke-width="1" fill="none" fill-rule="evenodd" sketch:type="MSPage">
        <g id="iPhone-6-Copy-2" sketch:type="MSArtboardGroup" transform="translate(-119.000000, -501.000000)">
            <g id="Meeting-Item-5" sketch:type="MSLayerGroup" transform="translate(0.000000, 437.000000)">
                <g id="Meeting-Location" transform="translate(119.000000, 62.000000)">
                    <g id="Location-Pin" transform="translate(0.000000, 2.000000)">
                        <mask id="mask-2" sketch:name="Clip 2" fill="white">
                            <use xlink:href="#path-1"></use>
                        </mask>
                        <g id="Clip-2"></g>
                        <path d="M5,6.5625 C4.30958333,6.5625 3.75,5.97494187 3.75,5.25 C3.75,4.52505812 4.30958333,3.9375 5,3.9375 C5.69041667,3.9375 6.25,4.52505812 6.25,5.25 C6.25,5.97494187 5.69041667,6.5625 5,6.5625 L5,6.5625 L5,6.5625 Z M5,3.0625 C3.8495825,3.0625 2.91666667,4.04162937 2.91666667,5.25 C2.91666667,6.45837062 3.8495825,7.4375 5,7.4375 C6.15041667,7.4375 7.08333333,6.45837062 7.08333333,5.25 C7.08333333,4.04162937 6.15041667,3.0625 5,3.0625 L5,3.0625 L5,3.0625 Z M5,12.6875 C4.30708333,12.6914388 0.833333333,7.0791875 0.833333333,5.25 C0.833333333,2.834125 2.69874875,0.875 5,0.875 C7.30125,0.875 9.16666667,2.834125 9.16666667,5.25 C9.16666667,7.0546875 5.68208333,12.6914388 5,12.6875 L5,12.6875 L5,12.6875 Z M5,0 C2.23875042,0 0,2.35068312 0,5.25 C0,7.44537937 4.16875,14.0048065 5,14 C5.81833333,14.0048065 10,7.41562937 10,5.25 C10,2.35068312 7.76125,0 5,0 L5,0 L5,0 Z" id="Fill-1" fill="#A1A6A9" sketch:type="MSShapeGroup" mask="url(#mask-2)"></path>
                        <path d="M5,6.5625 C4.30958333,6.5625 3.75,5.9749375 3.75,5.25 C3.75,4.5250625 4.30958333,3.9375 5,3.9375 C5.69041667,3.9375 6.25,4.5250625 6.25,5.25 C6.25,5.9749375 5.69041667,6.5625 5,6.5625 L5,6.5625 L5,6.5625 Z M5,3.0625 C3.84958333,3.0625 2.91666667,4.041625 2.91666667,5.25 C2.91666667,6.458375 3.84958333,7.4375 5,7.4375 C6.15041667,7.4375 7.08333333,6.458375 7.08333333,5.25 C7.08333333,4.041625 6.15041667,3.0625 5,3.0625 L5,3.0625 L5,3.0625 Z M5,12.6875 C4.30708333,12.6914375 0.833333333,7.0791875 0.833333333,5.25 C0.833333333,2.834125 2.69875,0.875 5,0.875 C7.30125,0.875 9.16666667,2.834125 9.16666667,5.25 C9.16666667,7.0546875 5.68208333,12.6914375 5,12.6875 L5,12.6875 L5,12.6875 Z M5,0 C2.23875,0 0,2.3506875 0,5.25 C0,7.445375 4.16875,14.0048125 5,14 C5.81833333,14.0048125 10,7.415625 10,5.25 C10,2.3506875 7.76125,0 5,0 L5,0 L5,0 Z" id="Stroke-3" stroke-opacity="0" stroke="#000000" sketch:type="MSShapeGroup" mask="url(#mask-2)"></path>
                    </g>
                </g>
            </g>
        </g>
    </g>
</svg>