<?xml version="1.0" encoding="UTF-8" standalone="no"?>
<svg width="14px" height="20px" viewBox="0 0 14 20" version="1.1" xmlns="http://www.w3.org/2000/svg" xmlns:xlink="http://www.w3.org/1999/xlink" xmlns:sketch="http://www.bohemiancoding.com/sketch/ns">
    <!-- Generator: Sketch 3.4.2 (15857) - http://www.bohemiancoding.com/sketch -->
    <title>Padlock</title>
    <desc>Created with Sketch.</desc>
    <defs></defs>
    <g id="Page-1" stroke="none" stroke-width="1" fill="none" fill-rule="evenodd" sketch:type="MSPage">
        <g id="iPhone-6" sketch:type="MSArtboardGroup" transform="translate(-34.000000, -390.000000)" fill="#CBCBCB">
            <g id="Password-Input" sketch:type="MSLayerGroup" transform="translate(34.000000, 385.000000)">
                <g id="Padlock" transform="translate(0.000000, 5.000000)" sketch:type="MSShapeGroup">
                    <path d="M10,20 L3.33333333,20 C1.5,20 0,18.5 0,16.6666667 L0,10.8333333 C0,9 1.5,7.5 3.33333333,7.5 L10,7.5 C11.8333333,7.5 13.3333333,9 13.3333333,10.8333333 L13.3333333,16.6666667 C13.3333333,18.5000008 11.8333333,20 10,20 L10,20 Z M3.33333333,9.16666667 C2.41666667,9.16666667 1.66666667,9.91666667 1.66666667,10.8333333 L1.66666667,16.6666667 C1.66666667,17.5833333 2.41666667,18.3333333 3.33333333,18.3333333 L10,18.3333333 C10.9166667,18.3333333 11.6666667,17.5833333 11.6666667,16.6666667 L11.6666667,10.8333333 C11.6666667,9.91666667 10.9166667,9.16666667 10,9.16666667 L3.33333333,9.16666667 L3.33333333,9.16666667 Z" id="Fill-1"></path>
                    <path d="M10.8333333,9.16666667 L2.5,9.16666667 C2,9.16666667 1.66666667,8.83333333 1.66666667,8.33333333 L1.66666667,5 C1.66666667,2.25 3.91666667,0 6.66666667,0 C9.5,0 11.6666667,2.25 11.6666667,5 L11.6666667,8.33333333 C11.6666667,8.83333333 11.3333333,9.16666667 10.8333333,9.16666667 L10.8333333,9.16666667 Z M3.33333333,7.5 L10,7.5 L10,5 C10,3.16666667 8.5,1.66666667 6.66666667,1.66666667 C4.83333333,1.66666667 3.33333333,3.16666667 3.33333333,5 L3.33333333,7.5 L3.33333333,7.5 Z" id="Fill-3"></path>
                    <path d="M7.845175,11.3214917 C8.49605,11.9723625 8.49605,13.0276375 7.845175,13.6785117 C7.1943,14.329385 6.13903333,14.329385 5.48815833,13.6785117 C4.83728167,13.0276375 4.83728167,11.9723625 5.48815833,11.3214917 C6.13903333,10.6706167 7.1943,10.6706167 7.845175,11.3214917" id="Fill-4"></path>
                    <path d="M6.66666667,16.6666667 C6.16666667,16.6666667 5.83333333,16.3333333 5.83333333,15.8333333 L5.83333333,13.3333333 C5.83333333,12.8333333 6.16666667,12.5 6.66666667,12.5 C7.16666667,12.5 7.5,12.8333333 7.5,13.3333333 L7.5,15.8333333 C7.5,16.3333333 7.16666667,16.6666667 6.66666667,16.6666667 L6.66666667,16.6666667 Z" id="Fill-5"></path>
                </g>
            </g>
        </g>
    </g>
</svg>