<?xml version="1.0" encoding="UTF-8" standalone="no"?>
<svg width="25px" height="25px" viewBox="0 0 25 25" version="1.1" xmlns="http://www.w3.org/2000/svg" xmlns:xlink="http://www.w3.org/1999/xlink" xmlns:sketch="http://www.bohemiancoding.com/sketch/ns">
    <!-- Generator: Sketch 3.4.2 (15857) - http://www.bohemiancoding.com/sketch -->
    <title>Plus Sign</title>
    <desc>Created with Sketch.</desc>
    <defs></defs>
    <g id="Page-1" stroke="none" stroke-width="1" fill="none" fill-rule="evenodd" sketch:type="MSPage">
        <g id="iPhone-6-Copy-2" sketch:type="MSArtboardGroup" transform="translate(-335.000000, -196.000000)">
            <g id="Calendar-Footer" sketch:type="MSLayerGroup" transform="translate(0.000000, 182.000000)">
                <g id="Plus-Sign" transform="translate(335.000000, 14.000000)" sketch:type="MSShapeGroup">
                    <path d="M12.5,23.4375 C6.45937891,23.4375 1.5625,18.5390469 1.5625,12.5 C1.5625,6.46095312 6.45937891,1.5625 12.5,1.5625 C18.5406172,1.5625 23.4375,6.46095312 23.4375,12.5 C23.4375,18.5390469 18.5406172,23.4375 12.5,23.4375 L12.5,23.4375 L12.5,23.4375 Z M12.5,0 C5.59608906,0 0,5.59377344 0,12.5 C0,19.4062234 5.59608906,25 12.5,25 C19.4039141,25 25,19.4062234 25,12.5 C25,5.59377344 19.4039141,0 12.5,0 L12.5,0 L12.5,0 Z M17.1875,11.71875 L13.28125,11.71875 L13.28125,7.8125 C13.28125,7.38277344 12.9320391,7.03125 12.5,7.03125 C12.0679609,7.03125 11.71875,7.38277344 11.71875,7.8125 L11.71875,11.71875 L7.8125,11.71875 C7.38046172,11.71875 7.03125,12.0702734 7.03125,12.5 C7.03125,12.9297266 7.38046172,13.28125 7.8125,13.28125 L11.71875,13.28125 L11.71875,17.1875 C11.71875,17.6172258 12.0679609,17.96875 12.5,17.96875 C12.9320391,17.96875 13.28125,17.6172258 13.28125,17.1875 L13.28125,13.28125 L17.1875,13.28125 C17.6195391,13.28125 17.96875,12.9297266 17.96875,12.5 C17.96875,12.0702734 17.6195391,11.71875 17.1875,11.71875 L17.1875,11.71875 L17.1875,11.71875 Z" id="Fill-1" fill="#FFFFFF"></path>
                    <path d="M12.5,23.4375 C6.459375,23.4375 1.5625,18.5390625 1.5625,12.5 C1.5625,6.4609375 6.459375,1.5625 12.5,1.5625 C18.540625,1.5625 23.4375,6.4609375 23.4375,12.5 C23.4375,18.5390625 18.540625,23.4375 12.5,23.4375 L12.5,23.4375 L12.5,23.4375 Z M12.5,0 C5.59609375,0 0,5.59375 0,12.5 C0,19.40625 5.59609375,25 12.5,25 C19.4039062,25 25,19.40625 25,12.5 C25,5.59375 19.4039062,0 12.5,0 L12.5,0 L12.5,0 Z M17.1875,11.71875 L13.28125,11.71875 L13.28125,7.8125 C13.28125,7.3828125 12.9320312,7.03125 12.5,7.03125 C12.0679688,7.03125 11.71875,7.3828125 11.71875,7.8125 L11.71875,11.71875 L7.8125,11.71875 C7.38046875,11.71875 7.03125,12.0703125 7.03125,12.5 C7.03125,12.9296875 7.38046875,13.28125 7.8125,13.28125 L11.71875,13.28125 L11.71875,17.1875 C11.71875,17.6171875 12.0679688,17.96875 12.5,17.96875 C12.9320312,17.96875 13.28125,17.6171875 13.28125,17.1875 L13.28125,13.28125 L17.1875,13.28125 C17.6195312,13.28125 17.96875,12.9296875 17.96875,12.5 C17.96875,12.0703125 17.6195312,11.71875 17.1875,11.71875 L17.1875,11.71875 L17.1875,11.71875 Z" id="Stroke-3" stroke-opacity="0" stroke="#000000"></path>
                </g>
            </g>
        </g>
    </g>
</svg>