<?xml version="1.0" encoding="UTF-8" standalone="no"?>
<svg width="16px" height="20px" viewBox="0 0 16 20" version="1.1" xmlns="http://www.w3.org/2000/svg" xmlns:xlink="http://www.w3.org/1999/xlink" xmlns:sketch="http://www.bohemiancoding.com/sketch/ns">
    <!-- Generator: Sketch 3.4.2 (15857) - http://www.bohemiancoding.com/sketch -->
    <title>User</title>
    <desc>Created with Sketch.</desc>
    <defs></defs>
    <g id="Page-1" stroke="none" stroke-width="1" fill="none" fill-rule="evenodd" sketch:type="MSPage">
        <g id="iPhone-6" sketch:type="MSArtboardGroup" transform="translate(-34.000000, -309.000000)" fill="#CACACA">
            <g id="Username-Input" sketch:type="MSLayerGroup" transform="translate(34.000000, 304.000000)">
                <g id="User" transform="translate(0.000000, 5.000000)" sketch:type="MSShapeGroup">
                    <path d="M7.61904762,10.9090909 C6.93333333,10.9090909 6.32380952,10.6363636 5.79047619,10.2727273 C4.4952381,9.27272727 3.80952381,7.18181818 3.80952381,4.54545455 C3.80952381,2 5.48571429,0 7.61904762,0 C9.75238095,0 11.4285714,2 11.4285714,4.54545455 C11.4285714,7.18181818 10.7428571,9.27272727 9.44761905,10.2727273 C8.91428571,10.6363636 8.3047619,10.9090909 7.61904762,10.9090909 L7.61904762,10.9090909 Z M7.61904762,1.81818182 C6.32380952,1.81818182 5.33333333,3 5.33333333,4.54545455 C5.33333333,6.54545455 5.79047619,8.09090909 6.62857143,8.72727273 C7.23809524,9.18181818 8,9.18181818 8.60952381,8.72727273 C9.44761905,8.09090909 9.9047619,6.54545455 9.9047619,4.54545455 C9.9047619,3 8.91428571,1.81818182 7.61904762,1.81818182 L7.61904762,1.81818182 Z" id="Fill-1"></path>
                    <path d="M7.61904762,20 C5.86666667,20 0,19.7272727 0,16.3636364 C0,13 2.05714286,11.8181818 4.34285714,11 C4.4952381,10.9090909 5.1047619,10.6363636 5.33333333,9.27272727 L6.85714286,9.63636364 C6.62857143,11.2727273 5.86666667,12.2727273 4.8,12.7272727 C2.51428571,13.6363636 1.52380952,14.3636355 1.52380952,16.3636364 C1.52380952,17.3636364 4.72380952,18.1818182 7.61904762,18.1818182 C10.5142857,18.1818182 13.7142857,17.3636364 13.7142857,16.3636364 C13.7142857,14.3636364 12.7238095,13.6363636 10.4380952,12.6363636 C9.37142857,12.1818182 8.68571429,11.1818182 8.38095238,9.54545455 L9.9047619,9.18181818 C10.1333333,10.5454545 10.7428571,10.8181818 10.9714286,10.9090909 C13.2571429,11.8181818 15.3142857,12.9090909 15.3142857,16.2727273 C15.2380952,17.1818182 14.7047619,20 7.61904762,20 L7.61904762,20 Z" id="Fill-3"></path>
                </g>
            </g>
        </g>
    </g>
</svg>